<?xml version="1.0" encoding="UTF-8"?>
<svg id="Ebene_2" xmlns="http://www.w3.org/2000/svg" viewBox="0 0 241.2 241.2">
  <defs>
    <style>
      .cls-1, .cls-2, .cls-3, .cls-4, .cls-5 {
        stroke: #c27d00;
        stroke-miterlimit: 10;
      }

      .cls-1, .cls-2, .cls-4, .cls-6 {
        fill: #da9100;
      }

      .cls-1, .cls-3 {
        stroke-width: 5px;
      }

      .cls-2 {
        stroke-width: 6px;
      }

      .cls-3 {
        fill: #fff;
      }

      .cls-4 {
        stroke-width: 3px;
      }

      .cls-5 {
        fill: #feb031;
        stroke-width: 12px;
      }
    </style>
  </defs>
  <g id="Ebene_1-2" data-name="Ebene_1">
    <polygon class="cls-5" points="120.6 10.44 149.3 51.32 198.5 42.71 189.89 91.9 230.76 120.6 189.89 149.3 198.5 198.5 149.3 189.89 120.6 230.76 91.9 189.89 42.71 198.5 51.32 149.3 10.44 120.6 51.32 91.9 42.71 42.71 91.9 51.32 120.6 10.44"/>
    <g>
      <ellipse class="cls-1" cx="118.98" cy="144.75" rx="46.2" ry="32.27"/>
      <path class="cls-3" d="M128.19,154.29c-6.44-7.74-6.15-18.04-.73-23.47,3.79-3.79,9.75-4.86,14.59-3.49,8,2.26,10.87,10.57,11.73,13.2,2.97,9.03.68,19.83-5.13,26.77-12.88,15.36-44.59,13.63-56.84-2.57-4.83-6.38-7.93-16.74-4.4-26.04.49-1.29,4.65-12.26,13.93-13.2,7-.71,12.05,4.77,12.54,5.32,5.14,5.75,5.66,15.16,1.1,23.47"/>
      <circle class="cls-6" cx="102.61" cy="140.81" r="4.49"/>
      <circle class="cls-6" cx="137.54" cy="140.54" r="4.22"/>
      <path class="cls-2" d="M167.73,107.57h-18.78v-34.34c0-2.47-2-4.47-4.47-4.47h-51.01c-2.47,0-4.47,2-4.47,4.47v34.34h-24c-1.1,0-1.99.89-1.99,1.99v9.71c0,1.1.89,1.99,1.99,1.99h102.74c1.1,0,1.99-.89,1.99-1.99v-9.71c0-1.1-.89-1.99-1.99-1.99Z"/>
      <path class="cls-4" d="M114.73,153.95c2.07-1.43,4.13-2.85,6.2-4.28,2.33,1.29,4.66,2.57,6.99,3.86-2.23,3.03-4.46,6.05-6.68,9.08-2.17-2.89-4.34-5.77-6.51-8.66Z"/>
    </g>
  </g>
</svg>